<svg id="Layer_1" data-name="Layer 1" xmlns="http://www.w3.org/2000/svg" viewBox="0 0 244.64 48.49"><defs><style>.cls-1,.cls-2{fill:#fff;}.cls-1{fill-rule:evenodd;}</style></defs><path class="cls-1" d="M20.1,24.09V21.14c0-.71.25-1,.95-1q3,0,6,0c.65,0,.92.29.92.94,0,2,0,4,0,5.95,0,.69-.3,1-1,1H21a.81.81,0,0,1-.92-.91C20.09,26.12,20.1,25.1,20.1,24.09Z"/><path class="cls-1" d="M30.9,31V47.19c0,.69-.22,1-.75,1a.64.64,0,0,1-.71-.6,4,4,0,0,1,0-.6V30.75c0-1.07.12-1.2,1.19-1.2h16.2c.87,0,1.2.21,1.21.75s-.31.73-1.2.73H30.9Z"/><path class="cls-1" d="M17.12,31h-16a4,4,0,0,1-.49,0A.57.57,0,0,1,0,30.35a1.2,1.2,0,0,1,.48-.73c.18-.13.49-.07.75-.07H17.35c1.07,0,1.25.17,1.25,1.22V47.08c0,.79-.21,1.07-.76,1.07a.64.64,0,0,1-.71-.6c0-.2,0-.4,0-.6V31Z"/><path class="cls-1" d="M17.12,17.25V1.33a4.87,4.87,0,0,1,0-.54A.63.63,0,0,1,17.8.15a.67.67,0,0,1,.76.56,2.93,2.93,0,0,1,0,.59V17.61c0,1-.14,1.12-1.15,1.12H1.15a3,3,0,0,1-.6,0A.59.59,0,0,1,0,18a1.39,1.39,0,0,1,.52-.71c.15-.1.42,0,.64,0H17.12Z"/><path class="cls-1" d="M30.9,17.25H47.05c.66,0,1,.26,1,.77s-.3.71-.94.71H30.48c-.84,0-1.06-.21-1.06-1.07V1.19a2.74,2.74,0,0,1,0-.5.73.73,0,0,1,1.42,0,3.54,3.54,0,0,1,0,.65V17.25Z"/><path class="cls-1" d="M6.38,12.51h5.75v-6h1.48a3.67,3.67,0,0,1,0,.38q0,3,0,6c0,.72-.28,1-1,1.05-2.07,0-4.14,0-6.25,0Z"/><path class="cls-1" d="M12.15,35.85H6.38V34.38l.52,0h5.62c.93,0,1.12.19,1.12,1.12,0,2.12,0,4.25,0,6.39H12.15Z"/><path class="cls-1" d="M41.55,14H36.79c-.53,0-1.06,0-1.58,0s-.82-.26-.83-.76c0-2.24,0-4.47,0-6.74h1.48v6h5.69Z"/><path class="cls-1" d="M35.89,41.86H34.41c0-.11,0-.25,0-.38V35.32c0-.66.24-1,.84-1,2.06,0,4.11,0,6.16,0a.86.86,0,0,1,.18,0v1.42H35.89Z"/><path class="cls-1" d="M10.49,2.62A2.36,2.36,0,0,1,12.86.22a2.4,2.4,0,0,1,2.43,2.41A2.45,2.45,0,0,1,12.88,5,2.4,2.4,0,0,1,10.49,2.62Z"/><path class="cls-1" d="M32.73,45.66a2.35,2.35,0,0,1,2.36-2.4,2.42,2.42,0,0,1,2.43,2.36,2.5,2.5,0,0,1-2.37,2.44A2.37,2.37,0,0,1,32.73,45.66Z"/><path class="cls-1" d="M.08,13.21a2.37,2.37,0,0,1,2.35-2.37,2.4,2.4,0,1,1,0,4.8A2.37,2.37,0,0,1,.08,13.21Z"/><path class="cls-1" d="M45.54,15.64a2.35,2.35,0,0,1-2.4-2.36,2.4,2.4,0,1,1,4.79,0A2.39,2.39,0,0,1,45.54,15.64Z"/><path class="cls-1" d="M.09,35a2.33,2.33,0,0,1,2.37-2.38,2.4,2.4,0,1,1,0,4.8A2.42,2.42,0,0,1,.09,35Z"/><path class="cls-1" d="M45.56,32.64A2.38,2.38,0,0,1,47.93,35a2.42,2.42,0,0,1-2.38,2.4A2.46,2.46,0,0,1,43.14,35,2.38,2.38,0,0,1,45.56,32.64Z"/><path class="cls-1" d="M15.29,45.65a2.39,2.39,0,0,1-2.37,2.41,2.4,2.4,0,0,1-.06-4.8A2.48,2.48,0,0,1,15.29,45.65Z"/><path class="cls-1" d="M32.73,2.54A2.38,2.38,0,0,1,35.18.22a2.43,2.43,0,0,1,2.34,2.46,2.4,2.4,0,1,1-4.79-.14Z"/><path class="cls-1" d="M23.26,43c0-1.38,0-2.77,0-4.15,0-.66.25-1,.75-1s.75.36.75,1v8.4c0,.65-.23.93-.73.94s-.77-.28-.77-.94C23.25,45.79,23.26,44.37,23.26,43Z"/><path class="cls-1" d="M23.26,5.28c0-1.4,0-2.8,0-4.19,0-.63.25-.94.73-.95s.77.31.77,1V9.5c0,.65-.28,1-.75,1s-.75-.38-.75-1C23.25,8.08,23.26,6.68,23.26,5.28Z"/><path class="cls-1" d="M42.84,23.4h4.25c.61,0,.93.26.93.75s-.33.75-.94.75H38.62c-.64,0-1-.29-.95-.79s.32-.71,1-.71Z"/><path class="cls-1" d="M5.16,23.4H9.41c.62,0,.93.24.93.73s-.3.77-.91.77H.94c-.62,0-.93-.27-.94-.75s.31-.75,1-.75Z"/><path class="cls-1" d="M35.05,23.4c.22,0,.43,0,.65,0a.74.74,0,0,1,.06,1.46,8.3,8.3,0,0,1-1.41,0,.65.65,0,0,1-.64-.78.67.67,0,0,1,.69-.69Z"/><path class="cls-1" d="M12.94,24.91a5.37,5.37,0,0,1-.7,0,.66.66,0,0,1-.59-.78.63.63,0,0,1,.63-.68,10.29,10.29,0,0,1,1.36,0,.65.65,0,0,1,.67.7.68.68,0,0,1-.61.76A6.45,6.45,0,0,1,12.94,24.91Z"/><path class="cls-1" d="M23.27,13.09c0-.2,0-.39,0-.6a.74.74,0,0,1,1.48-.05,8.82,8.82,0,0,1,0,1.36.64.64,0,0,1-.72.64.7.7,0,0,1-.75-.7C23.25,13.53,23.27,13.31,23.27,13.09Z"/><path class="cls-1" d="M23.27,30.86a5.8,5.8,0,0,1,0-.59.73.73,0,0,1,1.45-.12,6.36,6.36,0,0,1,0,1.51c0,.42-.37.6-.79.57a.67.67,0,0,1-.66-.66c0-.24,0-.47,0-.71Z"/><path class="cls-1" d="M23.27,17.37c0-.22,0-.44,0-.65a.74.74,0,0,1,1.47,0,8.18,8.18,0,0,1,0,1.4.65.65,0,0,1-.72.65.7.7,0,0,1-.75-.7C23.25,17.8,23.27,17.58,23.27,17.37Z"/><path class="cls-1" d="M30.78,23.4h.6a.74.74,0,0,1,0,1.48,7.06,7.06,0,0,1-1.3,0,.69.69,0,0,1-.69-.8.68.68,0,0,1,.76-.68Z"/><path class="cls-1" d="M17.27,23.4h.59a.7.7,0,0,1,.73.72.67.67,0,0,1-.68.76,8.06,8.06,0,0,1-1.3,0,.68.68,0,0,1-.69-.79.68.68,0,0,1,.75-.69Z"/><path class="cls-1" d="M23.27,35.16c0-.19,0-.4,0-.59a.67.67,0,0,1,.65-.73.68.68,0,0,1,.81.62,6.48,6.48,0,0,1,0,1.46.64.64,0,0,1-.77.58.66.66,0,0,1-.69-.69C23.26,35.6,23.27,35.38,23.27,35.16Z"/><path class="cls-2" d="M82.46,1V18.63h-.8L70.31,1.53V17.61h2.63v.67H66.83v-.67h2.63V1H66.83V.4h6.85L81.61,12V1H79V.4h6.07V1Z"/><path class="cls-2" d="M105.93,18.28H90.7v-.62h2.65V1H90.7V.4h14.78l.18,4.76h-.74a5.49,5.49,0,0,0-1.72-3.34A5.7,5.7,0,0,0,99.86,1H96.78V8.8h.72c1.34,0,2.23-.32,2.66-1a4.06,4.06,0,0,0,.66-2.3h.75V13h-.75a4.6,4.6,0,0,0-.64-2.46A2.93,2.93,0,0,0,97.5,9.42h-.72v8.24h3.59c1.73,0,2.93-.42,3.61-1.26a8,8,0,0,0,1.42-3.82h.77Z"/><path class="cls-2" d="M126.06,6.07C125.75,4,125.2,2.63,124.4,2a4.68,4.68,0,0,0-3-1h-.69V17.66h2.81v.62h-9v-.62h2.81V1h-.75a4.77,4.77,0,0,0-3,1c-.8.66-1.36,2-1.66,4.09H111l.3-5.67h15.36l.29,5.67Z"/><path class="cls-2" d="M153.81,1l-6.29,17.66h-.83l-3-8.22-3,8.22h-.86L133.42,1h-2V.4h18.2V1h-1.76L145.7,7l2.57,7L153,1h-2.17V.4h4.92V1ZM140.27,1h-3.48l4.82,13,1.66-4.74Zm5.3,0H143.4l1.93,4.6L147.09,1Z"/><path class="cls-2" d="M171.82,15.87A7.69,7.69,0,0,1,166,18.68a7.59,7.59,0,0,1-5.81-2.78,9.46,9.46,0,0,1-2.52-6.56,9.47,9.47,0,0,1,2.49-6.53,7.49,7.49,0,0,1,11.67,0,9.46,9.46,0,0,1,2.52,6.56A9.35,9.35,0,0,1,171.82,15.87ZM170.4,6.13A6.77,6.77,0,0,0,169.33,2,4,4,0,0,0,166,.62,3.89,3.89,0,0,0,162.67,2a6.63,6.63,0,0,0-1.07,4.11v6.41a6.64,6.64,0,0,0,1.07,4.12,4.64,4.64,0,0,0,6.64,0,6.65,6.65,0,0,0,1.09-4.12Z"/><path class="cls-2" d="M192.88,18.6a4.74,4.74,0,0,1-1.95-.38A3.45,3.45,0,0,1,189,15.6l-.08-1.15c-.06-.86-.14-1.61-.24-2.27a5.17,5.17,0,0,0-.56-1.69,3,3,0,0,0-2.81-1.42h-1.38v8.54h2.65v.67h-8.73v-.67h2.65V1h-2.65V.4h9.42a8.12,8.12,0,0,1,4.42,1,3.39,3.39,0,0,1,1.5,3.11,3.43,3.43,0,0,1-1.39,2.84,9.14,9.14,0,0,1-4.24,1.52c2.22.46,3.63,1.28,4.21,2.44a7.51,7.51,0,0,1,.66,1.92,14.3,14.3,0,0,1,.22,2.25l0,1.31a1.26,1.26,0,0,0,.64.86,1.94,1.94,0,0,0,.86.13,8.81,8.81,0,0,0,1.12-.08v.62A10.6,10.6,0,0,1,192.88,18.6Zm-4-16.69A2.8,2.8,0,0,0,186.53,1h-2.61V8.46h2.26a3.22,3.22,0,0,0,2.53-.9,4.14,4.14,0,0,0,.8-2.8A4.88,4.88,0,0,0,188.87,1.91Z"/><path class="cls-2" d="M200.7,18.28v-.62h2.65V1H200.7V.4h8.72V1h-2.65V17.66h2.65v.62Zm10.46,0v-.62h2.78L207,9l7.47-8h-3.06V.4h6.72V1h-2.62l-5.83,6.16,8.53,10.48h1.21v.62Z"/><path class="cls-2" d="M82.49,48.09H67.26v-.62h2.65V30.83H67.26v-.62H82L82.22,35h-.75a5.44,5.44,0,0,0-1.71-3.35,5.73,5.73,0,0,0-3.35-.8H73.34v7.79h.71c1.35,0,2.24-.33,2.66-1a4,4,0,0,0,.67-2.3h.75v7.41h-.75a4.69,4.69,0,0,0-.64-2.46,2.94,2.94,0,0,0-2.69-1.07h-.71v8.24h3.58c1.73,0,2.94-.42,3.62-1.25A8.11,8.11,0,0,0,82,42.39h.78Z"/><path class="cls-2" d="M104.43,30.83V48.44h-.8L92.28,31.34V47.42h2.63v.67H88.8v-.67h2.63V30.83H88.8v-.62h6.86l7.92,11.64v-11H101v-.62h6.07v.62Z"/><path class="cls-2" d="M126.06,42.25a6,6,0,0,1-2,4.61,7.12,7.12,0,0,1-4.82,1.63,8,8,0,0,1-6.13-2.62,9.27,9.27,0,0,1-2.46-6.59,9.7,9.7,0,0,1,2.49-6.69,7.76,7.76,0,0,1,6-2.78,7.67,7.67,0,0,1,2.49.37,6,6,0,0,1,1.85,1l1.09-1.09h.62v5.13h-.78a6.64,6.64,0,0,0-2.17-3.72,4.8,4.8,0,0,0-2.91-1A4,4,0,0,0,115.67,32a8.92,8.92,0,0,0-1.09,4.9V40.6a12.3,12.3,0,0,0,.93,5.52,3.67,3.67,0,0,0,3.56,1.76,2.94,2.94,0,0,0,3.19-3.41V42.25h-2.71v-.61h8.38v.61Z"/><path class="cls-2" d="M130.61,48.09v-.62h2.65V30.83h-2.65v-.62h8.72v.62h-2.65V47.47h2.65v.62Z"/><path class="cls-2" d="M160.45,30.83V48.44h-.81L148.3,31.34V47.42h2.62v.67h-6.1v-.67h2.62V30.83h-2.62v-.62h6.85l7.92,11.64v-11H157v-.62h6.08v.62Z"/><path class="cls-2" d="M183.92,48.09H168.69v-.62h2.65V30.83h-2.65v-.62h14.77l.19,4.77h-.75a5.44,5.44,0,0,0-1.71-3.35,5.73,5.73,0,0,0-3.35-.8h-3.08v7.79h.72c1.35,0,2.24-.33,2.66-1a4.06,4.06,0,0,0,.67-2.3h.74v7.41h-.74a4.69,4.69,0,0,0-.64-2.46,3,3,0,0,0-2.69-1.07h-.72v8.24h3.59c1.73,0,2.93-.42,3.61-1.25a8.11,8.11,0,0,0,1.42-3.83h.78Z"/><path class="cls-2" d="M204.79,48.09H189.56v-.62h2.65V30.83h-2.65v-.62h14.78l.18,4.77h-.75a5.44,5.44,0,0,0-1.71-3.35,5.7,5.7,0,0,0-3.34-.8h-3.08v7.79h.72a3,3,0,0,0,2.66-1,4.06,4.06,0,0,0,.66-2.3h.75v7.41h-.75A4.6,4.6,0,0,0,199,40.3a2.93,2.93,0,0,0-2.68-1.07h-.72v8.24h3.58c1.73,0,2.94-.42,3.62-1.25a8.11,8.11,0,0,0,1.42-3.83H205Z"/><path class="cls-2" d="M225.48,48.41a4.68,4.68,0,0,1-1.95-.37,3.52,3.52,0,0,1-1.95-2.63l-.08-1.15a21.74,21.74,0,0,0-.24-2.27,4.81,4.81,0,0,0-.56-1.69,3,3,0,0,0-2.8-1.42h-1.39v8.54h2.65v.67h-8.72v-.67h2.65V30.83h-2.65v-.62h9.42a8.06,8.06,0,0,1,4.41,1,3.39,3.39,0,0,1,1.5,3.11,3.42,3.42,0,0,1-1.38,2.84,9.18,9.18,0,0,1-4.25,1.52c2.23.47,3.63,1.28,4.22,2.44A7.13,7.13,0,0,1,225,43a13.18,13.18,0,0,1,.23,2.25l0,1.31a1.23,1.23,0,0,0,.64.86,1.89,1.89,0,0,0,.85.13,9,9,0,0,0,1.13-.08v.62A10.74,10.74,0,0,1,225.48,48.41Zm-4-16.69a2.82,2.82,0,0,0-2.35-.89h-2.61v7.44h2.27a3.22,3.22,0,0,0,2.53-.9,4.14,4.14,0,0,0,.8-2.8A5,5,0,0,0,221.47,31.72Z"/><path class="cls-2" d="M243.09,46.83a5.33,5.33,0,0,1-4,1.66,6.06,6.06,0,0,1-2.06-.32,5.27,5.27,0,0,1-1.77-1l-1.28,1.09h-.46V43h.78a7.38,7.38,0,0,0,1.63,3.45,4.34,4.34,0,0,0,6.1.37,3.49,3.49,0,0,0,1.18-2.66,2.72,2.72,0,0,0-1.31-2.49,13.84,13.84,0,0,0-3.48-1.4,7.17,7.17,0,0,1-3.64-2,5.08,5.08,0,0,1-1.13-3.43A5,5,0,0,1,235,31.23a4.73,4.73,0,0,1,3.5-1.42,7,7,0,0,1,2.09.3,5.11,5.11,0,0,1,1.79,1l1-1h.51v5H243a5.91,5.91,0,0,0-1.47-3.34,4.08,4.08,0,0,0-3.13-1.31,3.34,3.34,0,0,0-2.35.91,2.85,2.85,0,0,0-1,2.17,1.94,1.94,0,0,0,1,2,16.94,16.94,0,0,0,3,1,8.75,8.75,0,0,1,4.31,2.12,5.63,5.63,0,0,1,1.2,3.84A6.09,6.09,0,0,1,243.09,46.83Z"/></svg>